<?xml version="1.0" standalone="no"?>
<!DOCTYPE svg PUBLIC "-//W3C//DTD SVG 20010904//EN"
 "http://www.w3.org/TR/2001/REC-SVG-20010904/DTD/svg10.dtd">
<svg version="1.0" xmlns="http://www.w3.org/2000/svg"
 width="300.000000pt" height="300.000000pt" viewBox="0 0 300.000000 300.000000"
 preserveAspectRatio="xMidYMid meet">
<metadata>
Created by potrace 1.10, written by Peter Selinger 2001-2011
</metadata>
<g transform="translate(0.000000,300.000000) scale(0.100000,-0.100000)"
fill="#000000" stroke="none">
<path d="M1305 2984 c-189 -28 -439 -112 -512 -173 -32 -27 -37 -61 -14 -97
30 -49 59 -50 160 -5 201 91 319 116 546 116 219 0 310 -14 474 -74 373 -136
679 -453 805 -833 14 -43 30 -103 36 -135 5 -32 13 -69 16 -83 3 -14 8 -81 11
-150 9 -215 -42 -457 -138 -640 -44 -85 -50 -105 -38 -140 11 -31 62 -62 88
-53 32 12 60 47 94 117 51 106 63 134 87 209 97 300 93 637 -10 946 -139 419
-499 780 -920 924 -160 55 -251 69 -460 72 -107 2 -208 1 -225 -1z m343 -24
c443 -48 833 -280 1067 -635 79 -119 166 -294 180 -360 1 -5 7 -28 13 -50 20
-72 41 -180 51 -262 19 -162 -9 -469 -52 -573 -6 -14 -11 -27 -12 -30 -1 -3
-7 -25 -14 -50 -17 -57 -96 -215 -120 -239 -20 -20 -52 -19 -78 2 -19 14 -15
61 7 90 11 14 20 28 20 32 0 3 12 32 26 63 14 31 30 66 34 77 13 28 59 197 65
235 23 143 25 303 5 435 -16 117 -14 106 -50 215 -73 222 -205 429 -371 582
-91 84 -195 162 -238 179 -13 5 -35 18 -50 28 -43 30 -214 97 -296 116 -186
43 -410 50 -590 17 -107 -19 -303 -85 -347 -117 -31 -21 -84 -20 -93 3 -25 57
2 92 95 124 25 9 77 27 115 41 132 46 200 62 315 73 41 3 80 9 87 13 16 8 108
5 231 -9z"/>
<path d="M1548 2783 c7 -3 16 -2 19 1 4 3 -2 6 -13 5 -11 0 -14 -3 -6 -6z"/>
<path d="M1489 2687 c-9 -12 -55 -66 -103 -119 -48 -54 -86 -98 -84 -98 2 0
25 7 52 15 79 24 77 26 74 -67 l-3 -82 -50 -11 c-170 -38 -297 -158 -340 -320
-19 -75 -19 -125 0 -200 33 -126 125 -220 297 -303 l97 -47 1 -303 0 -304 -52
7 c-74 9 -157 31 -212 56 -40 17 -52 19 -82 9 -37 -12 -64 -52 -64 -92 0 -71
103 -121 303 -149 l87 -12 0 -149 c0 -145 1 -150 25 -173 39 -40 111 -28 134
22 6 14 11 84 11 168 l0 145 28 6 c164 36 282 125 350 263 36 73 37 77 37 190
0 96 -4 126 -23 171 -44 110 -134 194 -289 272 l-103 52 0 269 0 270 50 -7
c28 -4 79 -16 113 -26 90 -28 120 -26 151 11 54 63 24 125 -77 158 -66 22
-115 31 -214 40 -9 1 -13 23 -13 76 0 84 -1 83 73 61 26 -8 47 -10 47 -6 0 5
-4 10 -8 12 -5 2 -46 46 -92 98 -114 131 -102 122 -121 97z m78 -84 c64 -75
70 -86 47 -81 -33 7 -50 -25 -48 -90 3 -100 10 -109 91 -118 57 -6 155 -29
193 -46 35 -15 47 -48 34 -87 -13 -35 -46 -38 -152 -11 -99 25 -149 28 -168 8
-11 -11 -14 -68 -15 -276 -1 -237 0 -265 16 -282 10 -11 59 -40 111 -65 214
-104 308 -241 299 -437 -6 -117 -48 -211 -128 -285 -48 -45 -170 -108 -229
-118 -62 -12 -65 -22 -70 -193 -4 -165 -6 -172 -59 -172 -46 0 -52 19 -54 177
-1 170 0 168 -105 178 -67 7 -180 36 -237 61 -37 17 -51 52 -37 92 12 34 48
42 99 25 157 -55 260 -66 290 -33 16 18 17 41 13 315 -4 204 -9 299 -17 309
-7 8 -24 17 -39 21 -45 11 -208 113 -253 158 -22 23 -53 67 -68 97 -23 49 -26
67 -26 160 0 97 2 110 30 165 55 109 149 183 282 221 86 24 89 30 87 126 -2
88 -15 111 -56 100 -19 -5 -18 -1 8 28 76 88 97 110 104 110 4 0 29 -26 57
-57z"/>
<path d="M1364 2160 c-82 -38 -134 -126 -134 -225 0 -100 46 -172 148 -232 42
-25 43 -25 63 -7 20 18 21 27 16 236 -5 264 -7 268 -93 228z m64 -346 l-3
-115 -55 38 c-100 70 -138 160 -111 261 15 53 73 119 126 143 l40 18 3 -114
c1 -63 1 -167 0 -231z"/>
<path d="M1566 1394 c-9 -8 -16 -27 -16 -42 -5 -479 -3 -502 36 -502 26 0 87
36 127 75 58 56 79 106 79 189 1 112 -45 193 -146 260 -63 42 -60 41 -80 20z
m118 -83 c75 -70 103 -174 75 -275 -13 -47 -99 -137 -146 -154 l-33 -11 0 260
0 260 33 -22 c17 -12 49 -38 71 -58z"/>
<path d="M240 2277 c-49 -24 -139 -225 -193 -431 -31 -118 -31 -126 -31 -341
0 -205 1 -228 27 -333 83 -348 280 -652 559 -862 392 -296 908 -378 1378 -221
110 37 245 104 254 126 18 49 1 96 -43 115 -27 11 -38 8 -128 -33 -516 -236
-1109 -131 -1508 269 -182 182 -303 408 -361 674 -26 117 -26 409 -1 525 27
118 70 242 123 346 45 92 46 93 30 126 -9 18 -27 38 -42 43 -32 12 -34 12 -64
-3z m68 -32 c30 -22 24 -49 -36 -175 -85 -175 -120 -330 -125 -545 -2 -91 0
-130 19 -279 10 -81 104 -342 139 -386 7 -8 15 -23 19 -33 17 -48 121 -182
216 -277 133 -132 255 -221 380 -275 25 -11 47 -22 50 -25 4 -6 130 -46 215
-70 219 -61 551 -41 777 46 31 12 59 19 62 16 3 -3 6 0 6 5 0 6 31 23 69 38
60 22 72 24 90 13 12 -7 22 -16 22 -20 1 -5 2 -14 3 -20 5 -28 -17 -48 -86
-81 -102 -49 -144 -64 -279 -97 -148 -36 -224 -45 -369 -44 -198 1 -417 50
-597 135 -34 16 -64 29 -68 29 -9 0 -90 54 -93 63 -2 4 -8 7 -14 7 -23 0 -178
124 -254 202 -218 225 -347 480 -405 803 -14 77 -18 309 -7 395 10 82 19 133
25 150 8 19 10 28 17 67 14 72 108 304 128 311 4 2 8 9 8 15 0 17 31 47 49 47
9 0 26 -7 39 -15z"/>
</g>
</svg>
